# Blender v2.79 (sub 0) OBJ File: ''
# www.blender.org
mtllib Hitbox_StaffSwing.mtl
o Cube
v 2.160000 -0.200000 -0.400000
v 0.200000 -0.200000 1.000000
v -0.200000 -0.200000 1.000000
v -2.160000 -0.200000 -0.400000
v 2.160001 0.200000 -0.399999
v -0.200000 0.200000 1.000000
v -2.160000 0.200000 -0.400000
v 0.000000 -0.200000 -2.000000
v -0.000000 -0.200000 1.000000
v 0.000000 0.200000 -2.000000
v -0.000000 0.200000 1.000000
v 1.404000 -0.200000 -1.400000
v 1.404001 0.200000 -1.400000
v 0.200000 0.200000 1.000001
v -1.404000 -0.200000 -1.400000
v -1.404000 0.200000 -1.400000
vn 0.0000 -1.0000 0.0000
vn 0.0000 1.0000 -0.0000
vn 0.5812 -0.0000 0.8137
vn -0.5812 -0.0000 0.8137
vn -0.7977 -0.0000 -0.6031
vn 0.3930 0.0000 -0.9196
vn -0.0000 -0.0000 1.0000
vn 0.7977 -0.0000 -0.6031
vn -0.3930 0.0000 -0.9196
usemtl Material
s off
f 15//1 3//1 4//1
f 16//2 7//2 6//2
f 1//3 5//3 14//3 2//3
f 3//4 6//4 7//4 4//4
f 16//5 15//5 4//5 7//5
f 13//6 12//6 8//6 10//6
f 2//7 14//7 11//7 9//7
f 13//2 10//2 11//2 14//2
f 12//1 2//1 9//1 8//1
f 1//1 2//1 12//1
f 5//2 13//2 14//2
f 5//8 1//8 12//8 13//8
f 10//9 8//9 15//9 16//9
f 9//7 11//7 6//7 3//7
f 10//2 16//2 6//2 11//2
f 8//1 9//1 3//1 15//1
