# Blender v2.79 (sub 0) OBJ File: 'MainChar.blend'
# www.blender.org
mtllib Icycle.mtl
o Cube.001
v 0.068995 0.186248 1.196160
v 0.174891 0.343608 -0.484584
v -0.101085 0.187974 1.202919
v -0.271227 0.348136 -0.466854
v 0.067157 0.016116 1.189523
v 0.170068 -0.102647 -0.501991
v -0.102923 0.017842 1.196283
v -0.276049 -0.098119 -0.484260
v -0.019033 0.048994 0.478595
v -0.045614 -0.218224 -1.341790
v -0.130667 0.145864 0.468591
v -0.338430 0.035866 -1.368029
v -0.111572 -0.054748 0.563574
v -0.288343 -0.490337 -1.118891
v -0.223206 0.042123 0.553570
v -0.581159 -0.236247 -1.145131
v -0.158409 0.148874 0.254342
v -0.277662 0.140294 -1.055822
v -0.040982 0.215772 0.246843
v 0.030347 0.315767 -1.075493
v -0.222318 0.263848 0.304107
v -0.445295 0.441869 -0.925291
v -0.104891 0.330747 0.296607
v -0.137286 0.617343 -0.944962
v -0.087652 0.215547 1.033098
v 0.207027 0.401132 -1.112330
v -0.165352 0.009436 1.005897
v 0.003219 -0.139494 -1.183679
v 0.109539 0.136621 1.128707
v 0.724257 0.194112 -0.861549
v 0.031839 -0.069489 1.101505
v 0.520450 -0.346514 -0.932899
v 0.070907 0.289761 -1.989167
v -0.229014 0.292804 -1.977247
v -0.232256 -0.007208 -1.988950
v 0.067665 -0.010252 -2.000870
v -0.022548 0.113664 1.926710
v 0.018218 0.113250 1.925090
v -0.022988 0.072885 1.925120
v 0.017777 0.072472 1.923499
vn 0.0138 0.9955 0.0941
vn -0.9948 0.0068 0.1020
vn -0.0074 -0.9975 0.0696
vn 0.9980 -0.0132 0.0616
vn 0.0141 0.9948 0.1006
vn 0.9976 -0.0081 -0.0687
vn 0.6568 0.7446 -0.1189
vn -0.7285 0.6838 0.0415
vn -0.6468 -0.7191 0.2541
vn 0.7757 -0.6259 0.0806
vn 0.2981 0.4315 0.8514
vn -0.2981 -0.4315 -0.8514
vn 0.4927 -0.8693 -0.0392
vn 0.8858 0.4567 0.0823
vn -0.4738 0.8553 0.2098
vn -0.8558 -0.5109 0.0812
vn 0.2202 -0.2818 0.9339
vn -0.2202 0.2818 -0.9339
vn -0.9271 0.3622 -0.0960
vn -0.3852 -0.9223 0.0331
vn 0.8904 -0.3706 0.2643
vn 0.3160 0.9405 0.1248
vn -0.4229 0.0400 0.9053
vn 0.4229 -0.0400 -0.9053
vn -0.0393 0.0394 -0.9985
vn -0.9995 0.0119 -0.0284
vn -0.0125 -0.9981 -0.0607
vn 0.0087 0.9993 -0.0364
vn 0.0393 -0.0394 0.9985
vn -0.0071 -0.9971 0.0761
vn 0.9976 -0.0134 0.0681
vn -0.9941 0.0065 0.1085
usemtl None
s off
f 1//1 2//1 4//1 3//1
f 3//2 4//2 8//2 7//2
f 7//3 8//3 6//3 5//3
f 5//4 6//4 2//4 1//4
f 1//5 3//5 37//5 38//5
f 2//6 6//6 36//6 33//6
f 9//7 10//7 12//7 11//7
f 11//8 12//8 16//8 15//8
f 15//9 16//9 14//9 13//9
f 13//10 14//10 10//10 9//10
f 11//11 15//11 13//11 9//11
f 16//12 12//12 10//12 14//12
f 17//13 18//13 20//13 19//13
f 19//14 20//14 24//14 23//14
f 23//15 24//15 22//15 21//15
f 21//16 22//16 18//16 17//16
f 19//17 23//17 21//17 17//17
f 24//18 20//18 18//18 22//18
f 25//19 26//19 28//19 27//19
f 27//20 28//20 32//20 31//20
f 31//21 32//21 30//21 29//21
f 29//22 30//22 26//22 25//22
f 27//23 31//23 29//23 25//23
f 32//24 28//24 26//24 30//24
f 35//25 34//25 33//25 36//25
f 8//26 4//26 34//26 35//26
f 6//27 8//27 35//27 36//27
f 4//28 2//28 33//28 34//28
f 37//29 39//29 40//29 38//29
f 7//30 5//30 40//30 39//30
f 5//31 1//31 38//31 40//31
f 3//32 7//32 39//32 37//32
